<svg id="Слой_1" data-name="Слой 1" xmlns="http://www.w3.org/2000/svg" viewBox="0 0 150.79 31.28"><defs><style>.cls-1,.cls-2{fill:#fff;}.cls-2{opacity:0.7;}</style></defs><path class="cls-1" d="M9.41,13H.76V.32H9.45v2.6H4V5.44H9.13V7.82H4V10.4H9.45Z" transform="translate(0)"/><path class="cls-1" d="M20.35,13h-3V11.19h-.06a2.75,2.75,0,0,1-2.79,2A3.34,3.34,0,0,1,11,10c0-.16,0-.31,0-.46V3.43h3.12V8.91c0,1.13.59,1.74,1.57,1.74a1.59,1.59,0,0,0,1.59-1.59,1.48,1.48,0,0,0,0-.21V3.43h3.11Z" transform="translate(0)"/><path class="cls-1" d="M21.86,3.43h3V5.24h.06a2.26,2.26,0,0,1,2.25-1.95,2.11,2.11,0,0,1,.79.12V6.07a2.64,2.64,0,0,0-1-.18,1.85,1.85,0,0,0-2,1.68A1.79,1.79,0,0,0,25,8v5h-3.1Z" transform="translate(0)"/><path class="cls-1" d="M28.4,8.21c0-3.13,1.93-5,4.9-5s4.89,1.87,4.89,5-1.88,5-4.89,5S28.4,11.4,28.4,8.21Zm6.64,0c0-1.72-.68-2.73-1.74-2.73s-1.73,1-1.73,2.73.66,2.73,1.73,2.73S35,10,35,8.22Z" transform="translate(0)"/><path class="cls-1" d="M44.27,13h-3L37.91.32h3.33L43,8.89H43L45.15.32h2.61l2.12,8.57H50L51.66.32H55L51.68,13h-3L46.54,5.08h-.07Z" transform="translate(0)"/><path class="cls-1" d="M54.55,10.23c0-1.79,1.38-2.79,3.86-2.94l2.24-.13V6.61c0-.76-.54-1.18-1.36-1.18a1.33,1.33,0,0,0-1.47,1H55c.08-2,1.75-3.25,4.43-3.25S63.7,4.49,63.7,6.42V13h-3V11.62h-.06a3.2,3.2,0,0,1-2.84,1.5,3,3,0,0,1-3.24-2.74A.76.76,0,0,1,54.55,10.23Zm6.1-.66V8.91L58.91,9c-.82.06-1.27.44-1.27,1s.5,1,1.24,1a1.61,1.61,0,0,0,1.77-1.43Z" transform="translate(0)"/><path class="cls-1" d="M65.42,16.52V14.16h.68c1,0,1.44-.25,1.52-.83a2,2,0,0,0,0-.35L64.39,3.41h3.44l1.73,7.23h.06l1.72-7.23h3.28L71.56,13c-.81,2.56-2.22,3.55-5,3.55Z" transform="translate(0)"/><path class="cls-1" d="M80.22,0C83.13,0,85,1.57,85,3.78c0,1.64-.82,2.56-2.88,4.42l-2.48,2.26v.06h5.52V13H75.51V10.81L80,6.75c1.57-1.4,1.89-2,1.89-2.76a1.56,1.56,0,0,0-1.56-1.56h-.12a1.83,1.83,0,0,0-1.94,1.72v.13h-3C75.33,1.72,77.31,0,80.22,0Z" transform="translate(0)"/><path class="cls-1" d="M92.56,13.22c-3.91,0-6.26-2.41-6.26-6.58S88.65.1,92.48.1c3.08,0,5.38,1.82,5.71,4.4H95a2.47,2.47,0,0,0-2.51-1.81c-1.82,0-2.91,1.44-2.91,3.91s1.2,4,3,4A2.35,2.35,0,0,0,95.2,8.49V8.32H92.88V6.11h5.43V7.66C98.32,11.1,96.18,13.22,92.56,13.22Z" transform="translate(0)"/><path class="cls-1" d="M99.42,8.21c0-3.13,1.92-5,4.89-5s4.9,1.87,4.9,5-1.88,5-4.9,5S99.42,11.4,99.42,8.21Zm6.63,0c0-1.72-.67-2.73-1.74-2.73s-1.73,1-1.73,2.73.66,2.73,1.73,2.73,1.74-1,1.74-2.72Z" transform="translate(0)"/><path class="cls-1" d="M110.53,11.48a1.63,1.63,0,1,1,1.62,1.64,1.63,1.63,0,0,1-1.62-1.64Z" transform="translate(0)"/><path class="cls-1" d="M121.41,7.21a1.63,1.63,0,0,0-1.61-1.63h0c-1.1,0-1.74,1-1.74,2.63s.64,2.66,1.74,2.66a1.59,1.59,0,0,0,1.62-1.56v0h2.85c-.07,2.44-1.81,4-4.5,4-3,0-4.86-1.88-4.86-5s1.86-5,4.84-5c2.7,0,4.45,1.61,4.52,4Z" transform="translate(0)"/><path class="cls-1" d="M125.13,8.21c0-3.13,1.92-5,4.89-5s4.9,1.87,4.9,5-1.88,5-4.9,5S125.13,11.4,125.13,8.21Zm6.63,0c0-1.72-.67-2.73-1.74-2.73s-1.73,1-1.73,2.73.66,2.73,1.73,2.73,1.74-1,1.74-2.72Z" transform="translate(0)"/><path class="cls-1" d="M136.12,3.43h3V5.32h.07a2.77,2.77,0,0,1,2.73-2,2.49,2.49,0,0,1,2.66,2h.06a3.2,3.2,0,0,1,6.15.84c0,.14,0,.28,0,.42v6.49h-3.12V7.32c0-1-.46-1.52-1.34-1.52a1.36,1.36,0,0,0-1.38,1.34,1.34,1.34,0,0,0,0,.2V13h-3V7.28c0-1-.48-1.48-1.33-1.48a1.39,1.39,0,0,0-1.4,1.38,1.09,1.09,0,0,0,0,.18V13h-3.12Z" transform="translate(0)"/><path class="cls-2" d="M2.16,29.37V23.26H0v-.94H5.4v.94H3.25v6.11Z" transform="translate(0)"/><path class="cls-2" d="M5.88,22.79a.62.62,0,0,1,.61-.6.61.61,0,0,1,.68.53.6.6,0,0,1-.52.68.43.43,0,0,1-.16,0A.61.61,0,0,1,5.88,22.79ZM6,24.23H7v5.14H6Z" transform="translate(0)"/><path class="cls-2" d="M8.1,24.23h1v.86h0a1.52,1.52,0,0,1,1.46-.95,1.41,1.41,0,0,1,1.44,1h0a1.67,1.67,0,0,1,1.6-1,1.59,1.59,0,0,1,1.68,1.49,1.47,1.47,0,0,1,0,.21v3.53H14.22V26.09a.93.93,0,0,0-.85-1h-.15a1,1,0,0,0-1.06,1v3.29h-1V26.06a.91.91,0,0,0-.81-1h-.19a1.07,1.07,0,0,0-1.07,1.09v3.24h-1Z" transform="translate(0)"/><path class="cls-2" d="M19.76,23v1.22h1v.83h-1V27.9c0,.44.2.64.63.64h.34v.78a2.84,2.84,0,0,1-.58.05c-1,0-1.45-.4-1.45-1.39V25H18V24.2h.75V23Z" transform="translate(0)"/><path class="cls-2" d="M21.62,22.32h1v2.77h0a1.68,1.68,0,0,1,1.63-.95,1.74,1.74,0,0,1,1.81,1.65,2.44,2.44,0,0,1,0,.27v3.31h-1V26.26a1.06,1.06,0,0,0-.9-1.2.87.87,0,0,0-.23,0,1.23,1.23,0,0,0-1.26,1.18,1,1,0,0,0,0,.17v3H21.62Z" transform="translate(0)"/><path class="cls-2" d="M31.54,27.86a2.09,2.09,0,0,1-2.21,1.6,2.37,2.37,0,0,1-2.45-2.27c0-.12,0-.25,0-.37A2.39,2.39,0,0,1,29,24.16l.3,0a2.29,2.29,0,0,1,2.34,2.22c0,.11,0,.23,0,.34v.36H28v.06a1.34,1.34,0,0,0,1.2,1.48h.18a1.17,1.17,0,0,0,1.19-.75ZM28,26.32h2.57A1.26,1.26,0,0,0,29.37,25h-.09A1.33,1.33,0,0,0,28,26.32Z" transform="translate(0)"/><path class="cls-2" d="M40.69,29.37V24.18h0l-2.13,5.19h-.8l-2.13-5.19h0v5.19h-1v-7H35.9l2.28,5.62h0l2.27-5.62h1.27v7.05Z" transform="translate(0)"/><path class="cls-2" d="M42.53,27.91c0-.9.69-1.45,1.91-1.52l1.4-.09v-.39a.88.88,0,0,0-1-.91,1,1,0,0,0-1.08.75h-1c.06-.93.85-1.61,2.12-1.61s2,.66,2,1.69v3.54h-1v-.85h0a1.84,1.84,0,0,1-1.62.93,1.55,1.55,0,0,1-1.72-1.36A1.09,1.09,0,0,1,42.53,27.91Zm3.31-.47V27l-1.26.07c-.63,0-1,.33-1,.77s.37.74.94.74a1.23,1.23,0,0,0,1.32-1.14Z" transform="translate(0)"/><path class="cls-2" d="M51.09,24.23h1.24L50.2,26.44l2.22,2.93H51.19l-1.74-2.28-.44.43v1.85H48v-7H49v4.11h0Z" transform="translate(0)"/><path class="cls-2" d="M57.12,27.86a2.09,2.09,0,0,1-2.21,1.6,2.37,2.37,0,0,1-2.45-2.27c0-.12,0-.25,0-.37a2.39,2.39,0,0,1,2.08-2.66l.3,0a2.29,2.29,0,0,1,2.34,2.22c0,.11,0,.23,0,.34v.36H53.55v.06a1.34,1.34,0,0,0,1.2,1.48h.18a1.17,1.17,0,0,0,1.19-.75Zm-3.57-1.54h2.57A1.26,1.26,0,0,0,55,25h-.09A1.33,1.33,0,0,0,53.55,26.32Z" transform="translate(0)"/><path class="cls-2" d="M61.39,23v1.22h1v.83h-1V27.9c0,.44.19.64.62.64h.35v.78a2.88,2.88,0,0,1-.59.05c-1,0-1.44-.4-1.44-1.39V25h-.75V24.2h.75V23Z" transform="translate(0)"/><path class="cls-2" d="M62.88,26.8a2.44,2.44,0,1,1,2.43,2.66,2.39,2.39,0,0,1-2.45-2.31C62.86,27,62.87,26.92,62.88,26.8Zm3.79,0c0-1.14-.53-1.79-1.36-1.79S64,25.66,64,26.8s.54,1.79,1.36,1.79S66.67,27.94,66.67,26.8Z" transform="translate(0)"/><path class="cls-2" d="M70.46,25.84c0-2.23,1.26-3.64,3.23-3.64a2.83,2.83,0,0,1,3,2.45H75.6a1.86,1.86,0,0,0-1.9-1.49c-1.28,0-2.11,1.05-2.11,2.68s.82,2.69,2.12,2.69a1.8,1.8,0,0,0,1.89-1.36h1.09a2.77,2.77,0,0,1-3,2.31C71.76,29.48,70.46,28.09,70.46,25.84Z" transform="translate(0)"/><path class="cls-2" d="M77.58,22.32h1v2.77h0a1.68,1.68,0,0,1,1.63-.95,1.74,1.74,0,0,1,1.81,1.65,2.44,2.44,0,0,1,0,.27v3.31H81V26.26c0-.76-.38-1.21-1.12-1.21a1.23,1.23,0,0,0-1.27,1.17,1.09,1.09,0,0,0,0,.18v3H77.56Z" transform="translate(0)"/><path class="cls-2" d="M82.89,27.91c0-.9.69-1.45,1.91-1.52l1.41-.09v-.39a.89.89,0,0,0-1-.91,1,1,0,0,0-1.09.75h-1c.06-.93.85-1.61,2.12-1.61s2.05.66,2.05,1.69v3.54h-1v-.85h0a1.84,1.84,0,0,1-1.62.93,1.54,1.54,0,0,1-1.76-1.3A1.94,1.94,0,0,1,82.89,27.91Zm3.32-.47V27l-1.27.07c-.63,0-1,.33-1,.77s.38.74.94.74a1.24,1.24,0,0,0,1.33-1.15Z" transform="translate(0)"/><path class="cls-2" d="M88.28,24.23h1v.86h0a1.65,1.65,0,0,1,1.61-.95,1.69,1.69,0,0,1,1.79,1.58,1.71,1.71,0,0,1,0,.32v3.33H91.61V26.25c0-.78-.36-1.2-1.09-1.2a1.21,1.21,0,0,0-1.23,1.17c0,.05,0,.1,0,.15v3h-1Z" transform="translate(0)"/><path class="cls-2" d="M93.68,29.77h1.08a1.21,1.21,0,0,0,1.22.71,1.15,1.15,0,0,0,1.3-1,1,1,0,0,0,0-.17v-.85h0a1.79,1.79,0,0,1-1.63.93c-1.28,0-2.13-1-2.13-2.61s.84-2.63,2.16-2.63a1.78,1.78,0,0,1,1.63,1h0v-.88h1v5c0,1.23-.95,2-2.41,2A2.06,2.06,0,0,1,93.68,29.77Zm3.59-3c0-1-.54-1.75-1.36-1.75s-1.34.68-1.34,1.75.53,1.73,1.34,1.73,1.36-.66,1.36-1.72Z" transform="translate(0)"/><path class="cls-2" d="M103.76,27.86a2.07,2.07,0,0,1-2.21,1.6,2.35,2.35,0,0,1-2.44-2.26,2.42,2.42,0,0,1,0-.38,2.39,2.39,0,0,1,2.08-2.66l.3,0a2.28,2.28,0,0,1,2.33,2.23c0,.11,0,.22,0,.33v.36h-3.63v.06a1.34,1.34,0,0,0,1.2,1.48h.19a1.14,1.14,0,0,0,1.18-.75Zm-3.55-1.54h2.55A1.26,1.26,0,0,0,101.57,25h-.07A1.32,1.32,0,0,0,100.21,26.32Z" transform="translate(0)"/></svg>