<svg id="Слой_1" data-name="Слой 1" xmlns="http://www.w3.org/2000/svg" viewBox="0 0 150.77 31.3"><defs><style>.cls-1{fill:#040404;}.cls-2{fill:#9b9ca3;}</style></defs><path class="cls-1" d="M225.65,315.68H217V303h8.69v2.6h-5.47v2.52h5.15v2.38h-5.15v2.58h5.47Z" transform="translate(-216.24 -302.68)"/><path class="cls-1" d="M236.59,315.68h-3v-1.81h-.06a2.74,2.74,0,0,1-2.79,2,3.34,3.34,0,0,1-3.51-3.61v-6.15h3.12v5.48c0,1.13.59,1.74,1.57,1.74a1.59,1.59,0,0,0,1.58-1.8v-5.42h3.11Z" transform="translate(-216.24 -302.68)"/><path class="cls-1" d="M238.1,306.11h3v1.81h.06a2.26,2.26,0,0,1,2.25-1.95,2.23,2.23,0,0,1,.79.12v2.66a2.65,2.65,0,0,0-1-.18,1.85,1.85,0,0,0-2,2.08v5H238.1Z" transform="translate(-216.24 -302.68)"/><path class="cls-1" d="M244.64,310.89c0-3.13,1.93-5,4.9-5s4.89,1.87,4.89,5-1.88,5-4.89,5S244.64,314.08,244.64,310.89Zm6.64,0c0-1.72-.68-2.73-1.74-2.73s-1.73,1-1.73,2.73.66,2.73,1.73,2.73S251.28,312.65,251.28,310.9Z" transform="translate(-216.24 -302.68)"/><path class="cls-1" d="M260.51,315.68h-3L254.15,303h3.33l1.72,8.57h.07l2.12-8.57H264l2.12,8.57h.07l1.71-8.57h3.33l-3.31,12.68h-3l-2.14-7.92h-.07Z" transform="translate(-216.24 -302.68)"/><path class="cls-1" d="M270.79,312.91c0-1.79,1.38-2.79,3.86-2.94l2.24-.13v-.55c0-.76-.54-1.18-1.36-1.18a1.33,1.33,0,0,0-1.47,1h-2.8c.08-2,1.75-3.25,4.43-3.25s4.25,1.31,4.25,3.24v6.56h-3v-1.36h-.06a3.2,3.2,0,0,1-2.84,1.5A3,3,0,0,1,270.79,312.91Zm6.1-.66v-.66l-1.74.11c-.82.06-1.27.44-1.27,1s.5,1,1.24,1A1.61,1.61,0,0,0,276.89,312.25Z" transform="translate(-216.24 -302.68)"/><path class="cls-1" d="M281.66,319.2v-2.36l.68,0c1,0,1.44-.25,1.52-.83a2,2,0,0,0,0-.35l-3.23-9.57h3.44l1.73,7.23h.06l1.72-7.23h3.28l-3.06,9.55c-.81,2.56-2.22,3.55-5,3.55Z" transform="translate(-216.24 -302.68)"/><path class="cls-1" d="M296.46,302.68c2.91,0,4.8,1.57,4.8,3.78,0,1.64-.82,2.56-2.88,4.42l-2.48,2.26v.06h5.52v2.48h-9.67v-2.19l4.5-4.06c1.57-1.4,1.89-2,1.89-2.76a1.56,1.56,0,0,0-1.68-1.56,1.83,1.83,0,0,0-1.94,1.85h-2.95C291.57,304.4,293.55,302.68,296.46,302.68Z" transform="translate(-216.24 -302.68)"/><path class="cls-1" d="M308.8,315.9c-3.91,0-6.26-2.41-6.26-6.58s2.35-6.54,6.18-6.54c3.08,0,5.38,1.82,5.71,4.4h-3.19a2.48,2.48,0,0,0-2.51-1.81c-1.82,0-2.91,1.44-2.91,3.91s1.2,4,3.05,4a2.35,2.35,0,0,0,2.57-2.14V311h-2.32v-2.21h5.43v1.55C314.56,313.78,312.42,315.9,308.8,315.9Z" transform="translate(-216.24 -302.68)"/><path class="cls-1" d="M315.66,310.89c0-3.13,1.92-5,4.89-5s4.9,1.87,4.9,5-1.88,5-4.9,5S315.66,314.08,315.66,310.89Zm6.63,0c0-1.72-.67-2.73-1.74-2.73s-1.73,1-1.73,2.73.66,2.73,1.73,2.73S322.29,312.65,322.29,310.9Z" transform="translate(-216.24 -302.68)"/><path class="cls-1" d="M326.77,314.16a1.63,1.63,0,1,1,1.62,1.64A1.62,1.62,0,0,1,326.77,314.16Z" transform="translate(-216.24 -302.68)"/><path class="cls-1" d="M337.65,309.89a1.62,1.62,0,0,0-1.61-1.63c-1.1,0-1.74.95-1.74,2.63s.64,2.66,1.74,2.66a1.59,1.59,0,0,0,1.62-1.59h2.85c-.07,2.44-1.81,4-4.5,4-3,0-4.86-1.88-4.86-5s1.86-5,4.84-5c2.7,0,4.45,1.61,4.52,4Z" transform="translate(-216.24 -302.68)"/><path class="cls-1" d="M341.37,310.89c0-3.13,1.92-5,4.89-5s4.9,1.87,4.9,5-1.88,5-4.9,5S341.37,314.08,341.37,310.89Zm6.63,0c0-1.72-.67-2.73-1.74-2.73s-1.73,1-1.73,2.73.66,2.73,1.73,2.73S348,312.65,348,310.9Z" transform="translate(-216.24 -302.68)"/><path class="cls-1" d="M352.36,306.11h3V308h.07a2.78,2.78,0,0,1,2.73-2,2.49,2.49,0,0,1,2.66,2h.06a3,3,0,0,1,3-2,3,3,0,0,1,3.14,3.26v6.49h-3.12V310c0-1-.46-1.52-1.34-1.52a1.36,1.36,0,0,0-1.37,1.54v5.68h-3v-5.74c0-.95-.48-1.48-1.33-1.48a1.39,1.39,0,0,0-1.39,1.56v5.66h-3.12Z" transform="translate(-216.24 -302.68)"/><path class="cls-2" d="M218.4,332.05v-6.11h-2.16V325h5.4v.94h-2.15v6.11Z" transform="translate(-216.24 -302.68)"/><path class="cls-2" d="M222.12,325.47a.61.61,0,0,1,.61-.6.61.61,0,1,1,0,1.21A.61.61,0,0,1,222.12,325.47Zm.09,1.44h1v5.14h-1Z" transform="translate(-216.24 -302.68)"/><path class="cls-2" d="M224.34,326.91h1v.86h0a1.52,1.52,0,0,1,1.46-.95,1.42,1.42,0,0,1,1.44,1h0a1.67,1.67,0,0,1,1.6-1,1.59,1.59,0,0,1,1.68,1.7v3.53h-1.06v-3.28a.93.93,0,0,0-1-1,1.05,1.05,0,0,0-1.06,1.12v3.21h-1v-3.36a.91.91,0,0,0-1-1,1.08,1.08,0,0,0-1.07,1.15v3.18h-1Z" transform="translate(-216.24 -302.68)"/><path class="cls-2" d="M236,325.69v1.22h1v.83h-1v2.84c0,.44.2.64.63.64l.34,0V332a2.82,2.82,0,0,1-.58.05c-1,0-1.45-.4-1.45-1.39v-2.95h-.75v-.83h.75v-1.22Z" transform="translate(-216.24 -302.68)"/><path class="cls-2" d="M237.86,325h1v2.77h0a1.67,1.67,0,0,1,1.63-.95,1.73,1.73,0,0,1,1.8,1.92v3.31H241.3v-3.11a1.06,1.06,0,0,0-1.13-1.21,1.22,1.22,0,0,0-1.25,1.35v3h-1.06Z" transform="translate(-216.24 -302.68)"/><path class="cls-2" d="M247.78,330.54a2.08,2.08,0,0,1-2.21,1.6,2.36,2.36,0,0,1-2.43-2.64,2.39,2.39,0,0,1,2.38-2.68,2.28,2.28,0,0,1,2.32,2.56v.36h-3.63v.06a1.35,1.35,0,0,0,1.38,1.49,1.17,1.17,0,0,0,1.19-.75ZM244.21,329h2.57a1.25,1.25,0,0,0-1.26-1.33A1.33,1.33,0,0,0,244.21,329Z" transform="translate(-216.24 -302.68)"/><path class="cls-2" d="M256.93,332.05v-5.19h0l-2.13,5.19H254l-2.13-5.19h0v5.19h-1V325h1.27l2.28,5.62h0l2.27-5.62h1.27v7.05Z" transform="translate(-216.24 -302.68)"/><path class="cls-2" d="M258.77,330.59c0-.9.69-1.45,1.91-1.52l1.4-.09v-.39c0-.57-.38-.91-1-.91a1,1,0,0,0-1.08.75h-1c.06-.93.85-1.61,2.12-1.61s2,.66,2,1.69v3.54h-1v-.85h0a1.84,1.84,0,0,1-1.62.93A1.55,1.55,0,0,1,258.77,330.59Zm3.31-.47v-.4l-1.26.07c-.63,0-1,.33-1,.77s.37.74.94.74A1.23,1.23,0,0,0,262.08,330.12Z" transform="translate(-216.24 -302.68)"/><path class="cls-2" d="M267.33,326.91h1.24l-2.13,2.21,2.22,2.93h-1.23l-1.74-2.28-.44.43v1.85h-1.06V325h1.06v4.11h0Z" transform="translate(-216.24 -302.68)"/><path class="cls-2" d="M273.36,330.54a2.08,2.08,0,0,1-2.21,1.6,2.36,2.36,0,0,1-2.43-2.64,2.39,2.39,0,0,1,2.38-2.68,2.28,2.28,0,0,1,2.32,2.56v.36h-3.63v.06a1.35,1.35,0,0,0,1.38,1.49,1.17,1.17,0,0,0,1.19-.75ZM269.79,329h2.57a1.25,1.25,0,0,0-1.26-1.33A1.33,1.33,0,0,0,269.79,329Z" transform="translate(-216.24 -302.68)"/><path class="cls-2" d="M277.63,325.69v1.22h1v.83h-1v2.84c0,.44.19.64.62.64l.35,0V332a2.86,2.86,0,0,1-.59.05c-1,0-1.44-.4-1.44-1.39v-2.95h-.75v-.83h.75v-1.22Z" transform="translate(-216.24 -302.68)"/><path class="cls-2" d="M279.12,329.48a2.44,2.44,0,1,1,2.43,2.66A2.38,2.38,0,0,1,279.12,329.48Zm3.79,0c0-1.14-.53-1.79-1.36-1.79s-1.36.65-1.36,1.79.54,1.79,1.36,1.79S282.91,330.62,282.91,329.48Z" transform="translate(-216.24 -302.68)"/><path class="cls-2" d="M286.7,328.52c0-2.23,1.26-3.64,3.23-3.64a2.83,2.83,0,0,1,3,2.45h-1.09a1.86,1.86,0,0,0-1.9-1.49c-1.28,0-2.11,1.05-2.11,2.68s.82,2.69,2.12,2.69a1.8,1.8,0,0,0,1.89-1.36h1.09a2.77,2.77,0,0,1-3,2.31C288,332.16,286.7,330.77,286.7,328.52Z" transform="translate(-216.24 -302.68)"/><path class="cls-2" d="M293.82,325h1.05v2.77h0a1.68,1.68,0,0,1,1.63-.95,1.73,1.73,0,0,1,1.8,1.92v3.31h-1.06v-3.11c0-.76-.38-1.21-1.12-1.21a1.22,1.22,0,0,0-1.26,1.35v3h-1.06Z" transform="translate(-216.24 -302.68)"/><path class="cls-2" d="M299.13,330.59c0-.9.69-1.45,1.91-1.52l1.41-.09v-.39c0-.57-.39-.91-1-.91a1,1,0,0,0-1.09.75h-1c.06-.93.85-1.61,2.12-1.61s2.05.66,2.05,1.69v3.54h-1v-.85h0a1.84,1.84,0,0,1-1.62.93A1.55,1.55,0,0,1,299.13,330.59Zm3.32-.47v-.4l-1.27.07c-.63,0-1,.33-1,.77s.38.74.94.74A1.24,1.24,0,0,0,302.45,330.12Z" transform="translate(-216.24 -302.68)"/><path class="cls-2" d="M304.52,326.91h1v.86h0a1.65,1.65,0,0,1,1.61-.95,1.69,1.69,0,0,1,1.78,1.9v3.33h-1.06v-3.12c0-.78-.36-1.2-1.09-1.2a1.2,1.2,0,0,0-1.22,1.32v3h-1.05Z" transform="translate(-216.24 -302.68)"/><path class="cls-2" d="M309.92,332.45H311a1.22,1.22,0,0,0,1.22.71,1.16,1.16,0,0,0,1.31-1.17v-.85h0a1.78,1.78,0,0,1-1.63.93c-1.28,0-2.13-1-2.13-2.61s.84-2.63,2.16-2.63a1.77,1.77,0,0,1,1.63,1h0v-.88h1v5c0,1.23-.95,2-2.41,2A2.07,2.07,0,0,1,309.92,332.45Zm3.59-3c0-1-.54-1.75-1.36-1.75s-1.34.68-1.34,1.75.53,1.73,1.34,1.73S313.51,330.52,313.51,329.46Z" transform="translate(-216.24 -302.68)"/><path class="cls-2" d="M320,330.54a2.07,2.07,0,0,1-2.21,1.6,2.35,2.35,0,0,1-2.42-2.64,2.39,2.39,0,0,1,2.38-2.68,2.28,2.28,0,0,1,2.31,2.56v.36h-3.63v.06a1.35,1.35,0,0,0,1.39,1.49,1.15,1.15,0,0,0,1.18-.75ZM316.45,329H319a1.26,1.26,0,0,0-1.26-1.33A1.32,1.32,0,0,0,316.45,329Z" transform="translate(-216.24 -302.68)"/></svg>